# xmcd
#
# Track frame offsets:
#	150
#	12509
#	26447
#	37594
#	51530
#	65646
#	80858
#	94685
#	113733
#	127097
#	143992
#	155081
#	172130
#
# Disc length: 2519 seconds
#
# Revision: 0
# Processed by: cddbd v1.5.2PL0 Copyright (c) Steve Scherf et al.
# Submitted via: EasyCDDAExtractor 4.5.0.2
#
DISCID=b909d50d
DTITLE=Waylon Young - Watching the way
DYEAR=1900
DGENRE=Country
TTITLE0=Big River
TTITLE1=Un momento alla
TTITLE2=I like it
TTITLE3=Land of Enchantment
TTITLE4=White lightning
TTITLE5=Twinkel twinkel lucky star
TTITLE6=Send a message to my heart
TTITLE7=I'll never forget you
TTITLE8=Omaba
TTITLE9=The day El paso died
TTITLE10=Sally was a good old girl
TTITLE11=Lets sing the old songs
TTITLE12=If I had any pride
EXTD=
EXTT0=
EXTT1=
EXTT2=
EXTT3=
EXTT4=
EXTT5=
EXTT6=
EXTT7=
EXTT8=
EXTT9=
EXTT10=
EXTT11=
EXTT12=
PLAYORDER=
